# xmcd
#
# Track frame offsets:
#	300
#	18183
#	39201
#	57910
#	75568
#	95627
#	115792
#	133553
#	149390
#	167303
#	187801
#	205108
#	223205
#	236997
#	253864
#	268390
#	285289
#	307864
#
# Disc length: 4327 seconds
#
# Revision: 1
# Processed by: cddbd v1.5.2PL0 Copyright (c) Steve Scherf et al.
# Submitted via: audiograbber 1.83.01
#
DISCID=f910e312
DTITLE=Various Artist - SFG348
DYEAR=2015
DGENRE=Karaoke
TTITLE0=Madonna - Living for love
TTITLE1=Ne-Yo - Coming with you
TTITLE2=Rae Morris - Under the shadows
TTITLE3=Beyonce - 7/11
TTITLE4=Weeknd - Earned it
TTITLE5=Ellie Goulding - Love me like you do
TTITLE6=Luvbug - Revive (say something)
TTITLE7=DJ Fresh f. Ella Eyre - Gravity
TTITLE8=Jamie T - Rabbit hole
TTITLE9=James Bay - Let it go
TTITLE10=Years and Years - King
TTITLE11=Bring me the horizon - Drown
TTITLE12=Aronchupa - I'm an albatroaz
TTITLE13=Selena Gomez - The heart wants what it wants
TTITLE14=Avicci - The nights
TTITLE15=David Guetta f. Emeli Sande - What I did for love
TTITLE16=Kanye West f. Paul McCartney - Only one
TTITLE17=Prodigy - Nasty
EXTD=
EXTT0=
EXTT1=
EXTT2=
EXTT3=
EXTT4=
EXTT5=
EXTT6=
EXTT7=
EXTT8=
EXTT9=
EXTT10=
EXTT11=
EXTT12=
EXTT13=
EXTT14=
EXTT15=
EXTT16=
EXTT17=
PLAYORDER=
